<svg xmlns="http://www.w3.org/2000/svg" width="559" height="550" viewBox="0 0 559 550">
<g>
<path d="M 0.14 420.25 L 0.00 550.00 L 0.00 0.00 L 559.00 0.00 L 424.75 0.14 C345.58,0.23 295.15,0.62 301.83,1.10 C347.65,4.40 395.65,20.83 434.00,46.35 C489.24,83.10 529.92,138.58 548.02,201.87 C552.59,217.83 556.79,239.76 557.68,252.20 C558.02,257.04 558.46,261.00 558.65,261.00 C558.84,261.00 559.00,202.27 559.00,130.50 L 559.00 550.00 L 558.83 423.75 C558.74,355.66 558.51,301.44 558.32,301.44 C558.31,301.44 558.31,301.46 558.30,301.50 C556.46,321.99 552.03,344.34 546.02,363.47 C523.79,434.20 472.72,494.71 406.88,528.32 C386.76,538.60 358.36,549.15 357.46,546.69 C357.22,546.04 354.82,537.93 352.12,528.68 C348.85,517.46 347.60,511.74 348.36,511.50 C348.99,511.31 351.30,510.61 353.50,509.94 C362.40,507.25 382.91,498.64 391.92,493.82 C457.20,458.83 502.77,397.81 516.86,326.50 C526.10,279.70 521.04,229.24 502.77,186.00 C485.18,144.37 455.24,107.02 419.00,81.51 C399.76,67.96 373.70,55.25 351.18,48.43 C266.97,22.90 175.35,44.54 112.98,104.68 L 102.43 114.85 L 88.69 102.22 L 74.95 89.59 L 83.73 80.72 C88.55,75.84 97.68,67.65 104.00,62.51 C147.59,27.10 201.89,5.39 257.53,1.12 C264.21,0.61 216.02,0.23 134.25,0.14 L 0.00 0.00 L 0.14 134.25 C0.22,210.39 0.63,263.99 1.08,258.09 C3.81,222.45 13.18,188.64 29.50,155.50 C35.88,142.55 47.50,122.86 51.51,118.20 C51.75,117.92 79.41,137.20 81.32,138.97 C81.76,139.39 79.52,143.73 76.32,148.62 C58.73,175.53 46.18,208.70 40.34,243.67 C37.77,259.10 37.77,298.75 40.35,315.00 C44.42,340.68 51.46,362.86 63.05,386.50 C90.92,443.38 142.23,488.23 202.82,508.68 L 214.14 512.50 L 213.56 515.44 C213.23,517.06 211.11,525.09 208.83,533.27 L 204.68 548.16 L 201.16 547.50 C187.85,545.00 151.56,528.72 132.21,516.57 C56.65,469.09 7.83,388.98 1.12,301.47 C0.61,294.76 0.23,340.91 0.14,420.25 ZM 322.81 486.85 C310.34,494.09 299.42,500.29 298.55,500.62 C297.11,501.17 297.01,494.65 297.49,429.86 C297.77,390.61 298.24,342.64 298.52,323.25 L 299.03 288.00 L 260.00 288.00 L 260.00 334.50 C260.00,360.08 259.77,381.00 259.49,381.00 C259.21,381.00 254.82,379.24 249.74,377.10 C244.66,374.95 233.99,370.48 226.02,367.17 C218.06,363.86 210.27,360.11 208.72,358.83 C208.08,358.30 207.51,357.89 207.01,357.41 C203.08,353.64 203.08,345.78 203.05,249.23 C203.05,245.46 203.05,241.55 203.05,237.50 C203.02,163.54 203.36,125.25 204.05,122.75 C204.62,120.69 206.08,117.90 207.30,116.56 C209.14,114.51 257.49,88.00 259.38,88.00 C259.72,88.00 260.00,122.65 260.00,165.00 L 260.00 242.00 L 299.00 242.00 L 299.00 163.50 C299.00,120.32 299.21,85.00 299.47,85.00 C299.73,85.00 307.50,88.64 316.72,93.09 C325.95,97.54 336.77,102.76 340.78,104.68 C345.88,107.14 348.79,109.26 350.53,111.82 L 353.00 115.46 L 353.00 289.78 C353.00,300.27 353.00,310.14 353.00,319.42 C353.02,459.76 353.02,467.15 349.35,470.37 C348.91,470.76 348.41,471.09 347.85,471.59 C346.56,472.74 335.29,479.60 322.81,486.85 ZM 421.50 423.50 C411.60,428.85 401.21,434.52 398.40,436.10 C395.60,437.68 393.01,438.68 392.65,438.32 C392.29,437.96 392.00,368.89 392.00,284.83 C392.00,167.54 392.28,132.00 393.19,132.00 C395.61,132.00 439.58,151.31 441.85,153.37 C442.46,153.93 443.00,154.34 443.48,154.81 C447.01,158.30 447.01,165.36 447.00,264.22 C447.00,270.00 447.00,276.08 447.00,282.50 C447.00,288.93 447.00,295.02 447.00,300.80 C447.01,399.63 447.01,406.70 443.48,410.19 C443.00,410.67 442.46,411.08 441.85,411.64 C440.56,412.82 431.40,418.15 421.50,423.50 ZM 164.00 290.38 C164.00,411.86 163.74,442.98 162.75,442.91 C160.95,442.77 121.72,425.70 118.77,423.77 C117.41,422.88 115.56,420.59 114.65,418.67 C113.15,415.50 113.00,404.58 113.00,294.56 C113.00,177.93 113.06,173.80 114.90,170.21 C116.51,167.07 120.10,164.50 138.15,153.56 C149.89,146.44 160.51,139.97 161.75,139.19 L 164.00 137.77 Z" fill="rgb(0,0,0)"/>
<path d="M 24.77 393.59 C35.35,417.02 49.17,438.96 65.81,458.77 C50.19,440.32 37.08,420.16 27.35,399.25 C26.46,397.35 25.60,395.47 24.77,393.59 ZM 359.25 11.73 C386.15,19.58 411.17,31.16 434.00,46.35 C411.59,31.43 385.88,19.63 359.25,11.73 ZM 169.16 23.08 C184.52,16.33 198.99,11.49 215.09,7.80 C199.39,11.54 184.01,16.67 169.16,23.08 ZM 0.48 227.98 C0.65,247.60 0.88,257.23 1.14,255.00 C1.48,252.14 1.83,249.33 2.20,246.59 C1.75,250.40 1.38,254.24 1.08,258.09 C0.86,261.00 0.65,249.49 0.48,227.98 ZM 104.00 62.51 C97.68,67.65 88.55,75.84 83.73,80.72 C100.94,63.32 122.71,47.11 145.34,34.73 C130.78,42.72 116.92,52.01 104.00,62.51 ZM 9.87 207.04 C14.56,189.36 20.85,173.07 29.50,155.50 C21.15,172.45 14.62,189.58 9.87,207.04 ZM 247.59 2.07 C247.73,2.05 247.86,2.03 248.00,2.02 C252.42,1.43 255.34,1.04 252.65,0.77 C257.46,0.88 259.19,0.99 257.53,1.12 C254.21,1.38 250.90,1.69 247.59,2.07 ZM 307.80 0.75 C304.21,0.95 305.21,1.22 308.50,1.60 C310.46,1.82 312.42,2.06 314.37,2.32 C310.18,1.81 306.00,1.40 301.83,1.10 C300.08,0.98 302.24,0.86 307.80,0.75 ZM 0.75 306.79 C0.86,301.60 0.99,299.70 1.12,301.47 C1.36,304.58 1.65,307.67 2.00,310.76 C1.84,309.52 1.69,308.26 1.55,307.00 C1.20,303.97 0.94,303.24 0.75,306.79 Z" fill="rgb(121,121,121)"/>
<path d="M 0.75 306.79 C0.94,303.24 1.20,303.97 1.55,307.00 C1.69,308.26 1.84,309.52 2.00,310.76 C2.03,311.04 2.06,311.33 2.09,311.61 C1.70,309.19 1.38,307.19 1.18,306.00 C0.66,302.90 0.31,336.08 0.17,398.63 C0.26,351.81 0.47,319.46 0.75,306.79 ZM 347.31 8.47 C355.88,10.47 363.29,12.70 372.00,15.69 C385.43,20.30 398.40,25.96 410.83,32.57 C394.55,23.96 377.32,17.00 359.25,11.73 C355.29,10.55 351.31,9.47 347.31,8.47 ZM 247.28 2.11 C249.75,1.71 251.80,1.38 253.00,1.18 C256.06,0.67 222.31,0.32 158.95,0.18 C207.04,0.27 240.18,0.48 252.65,0.77 C255.34,1.04 252.42,1.43 248.00,2.02 C247.86,2.03 247.73,2.05 247.59,2.07 C247.49,2.08 247.38,2.09 247.28,2.11 ZM 370.05 0.26 C326.59,0.44 303.77,0.75 306.50,1.16 C308.55,1.47 310.53,1.78 312.43,2.07 C311.13,1.91 309.81,1.75 308.50,1.60 C305.21,1.22 304.21,0.95 307.80,0.75 C318.05,0.54 339.86,0.37 370.05,0.26 ZM 0.48 227.98 C0.40,217.21 0.32,203.92 0.27,188.68 C0.44,229.05 0.74,255.72 1.06,254.00 C1.25,252.96 1.56,251.08 1.91,248.78 C1.64,250.82 1.39,252.90 1.14,255.00 C0.88,257.23 0.65,247.60 0.48,227.98 ZM 7.99 214.35 C8.75,211.18 9.58,208.01 10.46,204.84 C10.26,205.57 10.07,206.30 9.87,207.04 C9.21,209.47 8.58,211.91 7.99,214.35 Z" fill="rgb(171,171,171)"/>
<path d="M 0.13 425.25 C0.22,345.59 0.60,302.49 1.18,306.00 C1.69,309.02 3.01,317.35 4.12,324.50 C16.24,402.63 63.38,473.32 132.21,516.57 C151.56,528.72 187.85,545.00 201.16,547.50 L 204.68 548.16 L 208.83 533.27 C211.11,525.09 213.23,517.06 213.56,515.44 L 214.14 512.50 L 202.82 508.68 C142.23,488.23 90.92,443.38 63.05,386.50 C51.46,362.86 44.42,340.68 40.35,315.00 C37.77,298.75 37.77,259.10 40.34,243.67 C46.18,208.70 58.73,175.53 76.32,148.62 C79.52,143.73 81.76,139.39 81.32,138.97 C79.41,137.20 51.75,117.92 51.51,118.20 C47.50,122.86 35.88,142.55 29.50,155.50 C16.07,182.78 7.36,210.39 3.49,238.00 C2.61,244.32 1.51,251.52 1.06,254.00 C0.61,256.48 0.18,200.39 0.12,129.25 L 0.00 0.00 L 129.25 0.13 C211.64,0.22 256.51,0.60 253.00,1.18 C249.98,1.69 241.65,3.00 234.50,4.11 C206.70,8.40 181.68,16.48 154.50,29.95 C128.63,42.77 103.25,60.98 83.73,80.72 L 74.95 89.59 L 88.69 102.22 L 102.43 114.85 L 112.98 104.68 C175.35,44.54 266.97,22.90 351.18,48.43 C373.70,55.25 399.76,67.96 419.00,81.51 C455.24,107.02 485.18,144.37 502.77,186.00 C521.04,229.24 526.10,279.70 516.86,326.50 C502.77,397.81 457.20,458.83 391.92,493.82 C382.91,498.64 362.40,507.25 353.50,509.94 C351.30,510.61 348.99,511.31 348.36,511.50 C347.60,511.74 348.85,517.46 352.12,528.68 C354.82,537.93 357.22,546.04 357.46,546.69 C358.36,549.15 386.76,538.60 406.88,528.32 C472.72,494.71 523.79,434.20 546.02,363.47 C552.03,344.34 556.46,321.99 558.30,301.50 C558.50,299.30 558.74,354.31 558.83,423.75 L 559.00 550.00 L 279.50 550.00 L 0.00 550.00 L 0.13 425.25 ZM 322.81 486.85 C335.29,479.60 346.56,472.74 347.85,471.59 C353.32,466.71 353.00,478.07 353.00,289.78 L 353.00 115.46 L 350.53 111.82 C348.79,109.26 345.88,107.14 340.78,104.68 C336.77,102.76 325.95,97.54 316.72,93.09 C307.50,88.64 299.73,85.00 299.47,85.00 C299.21,85.00 299.00,120.32 299.00,163.50 L 299.00 242.00 L 279.50 242.00 L 260.00 242.00 L 260.00 165.00 C260.00,122.65 259.72,88.00 259.38,88.00 C257.49,88.00 209.14,114.51 207.30,116.56 C206.08,117.90 204.62,120.69 204.05,122.75 C203.36,125.25 203.02,163.54 203.05,237.50 C203.09,358.39 202.89,354.04 208.72,358.83 C210.27,360.11 218.06,363.86 226.02,367.17 C233.99,370.48 244.66,374.95 249.74,377.10 C254.82,379.24 259.21,381.00 259.49,381.00 C259.77,381.00 260.00,360.08 260.00,334.50 L 260.00 288.00 L 279.51 288.00 L 299.03 288.00 L 298.52 323.25 C298.24,342.64 297.77,390.61 297.49,429.86 C297.01,494.65 297.11,501.17 298.55,500.62 C299.42,500.29 310.34,494.09 322.81,486.85 ZM 164.00 290.38 L 164.00 137.77 L 161.75 139.19 C160.51,139.97 149.89,146.44 138.15,153.56 C120.10,164.50 116.51,167.07 114.90,170.21 C113.06,173.80 113.00,177.93 113.00,294.56 C113.00,404.58 113.15,415.50 114.65,418.67 C115.56,420.59 117.41,422.88 118.77,423.77 C121.72,425.70 160.95,442.77 162.75,442.91 C163.74,442.98 164.00,411.86 164.00,290.38 ZM 421.50 423.50 C431.40,418.15 440.56,412.82 441.85,411.64 C447.28,406.68 447.00,413.68 447.00,282.50 C447.00,151.32 447.28,158.31 441.85,153.37 C439.58,151.31 395.61,132.00 393.19,132.00 C392.28,132.00 392.00,167.54 392.00,284.83 C392.00,368.89 392.29,437.96 392.65,438.32 C393.01,438.68 395.60,437.68 398.40,436.10 C401.21,434.52 411.60,428.85 421.50,423.50 ZM 557.68 252.20 C556.79,239.76 552.59,217.83 548.02,201.87 C523.26,115.31 456.53,44.73 372.00,15.69 C352.70,9.06 339.79,6.20 306.50,1.16 C302.71,0.59 348.17,0.21 429.75,0.13 L 559.00 0.00 L 559.00 130.50 C559.00,202.27 558.84,261.00 558.65,261.00 C558.46,261.00 558.02,257.04 557.68,252.20 Z" fill="rgb(254,254,254)"/>
</g>
</svg>